<svg width="72" height="72" viewBox="0 0 72 72" fill="none" xmlns="http://www.w3.org/2000/svg">
<rect width="72" height="72" fill="#673AB7"/>
<path d="M50.8146 55.33H20.405C20.1983 55.33 19.9938 55.2875 19.8043 55.205C19.6148 55.1225 19.4443 55.0019 19.3035 54.8506C19.1626 54.6994 19.0544 54.5207 18.9857 54.3258C18.9169 54.1309 18.889 53.9239 18.9037 53.7178L21.0139 24.1854C21.041 23.8057 21.2109 23.4505 21.4895 23.1911C21.768 22.9318 22.1345 22.7876 22.5151 22.7876H48.7368C49.1179 22.7876 49.4848 22.9323 49.7635 23.1923C50.0421 23.4523 50.2117 23.8084 50.2381 24.1886L52.3153 53.721C52.3296 53.9269 52.3014 54.1335 52.2324 54.3279C52.1635 54.5224 52.0553 54.7006 51.9145 54.8515C51.7738 55.0024 51.6035 55.1228 51.4143 55.2051C51.2251 55.2874 51.021 55.3299 50.8146 55.33Z" fill="white"/>
<path d="M31.0867 25.8351C31.0865 26.0318 31.0476 26.2265 30.9721 26.4081C30.8967 26.5897 30.7862 26.7546 30.647 26.8935C30.5078 27.0324 30.3426 27.1425 30.1608 27.2176C29.9791 27.2927 29.7843 27.3312 29.5877 27.331C29.1911 27.3305 28.8108 27.1728 28.5304 26.8924C28.25 26.6119 28.0922 26.2317 28.0918 25.8351C28.0918 25.438 28.2496 25.0571 28.5304 24.7762C28.8112 24.4954 29.1921 24.3376 29.5893 24.3376C29.9864 24.3376 30.3673 24.4954 30.6481 24.7762C30.929 25.0571 31.0867 25.438 31.0867 25.8351Z" fill="#673AB7"/>
<path d="M43.0345 27.3305C43.8613 27.3305 44.5315 26.6603 44.5315 25.8336C44.5315 25.0069 43.8613 24.3367 43.0345 24.3367C42.2078 24.3367 41.5376 25.0069 41.5376 25.8336C41.5376 26.6603 42.2078 27.3305 43.0345 27.3305Z" fill="#673AB7"/>
<path d="M36.0187 11.7055C31.903 11.8618 28.707 15.3735 28.707 19.4919V25.6348C28.7068 25.7508 28.7295 25.8656 28.7737 25.9728C28.8179 26.08 28.8828 26.1774 28.9646 26.2594C29.0465 26.3415 29.1438 26.4067 29.2508 26.4511C29.3579 26.4956 29.4727 26.5185 29.5886 26.5186C29.8225 26.5186 30.0469 26.4256 30.2123 26.2602C30.3778 26.0948 30.4707 25.8704 30.4707 25.6365V19.4596C30.4707 16.192 33.1445 13.4099 36.4116 13.4643C37.9428 13.4921 39.402 14.1195 40.4756 15.2116C41.5492 16.3038 42.1515 17.7735 42.153 19.3049V25.6343C42.1528 25.7503 42.1753 25.8652 42.2195 25.9724C42.2637 26.0796 42.3286 26.1771 42.4105 26.2593C42.4923 26.3414 42.5896 26.4066 42.6967 26.4511C42.8038 26.4956 42.9186 26.5185 43.0346 26.5186C43.2686 26.5186 43.4929 26.4256 43.6583 26.2602C43.8238 26.0948 43.9167 25.8704 43.9167 25.6365V19.3049C43.9167 15.014 40.3463 11.5422 36.0187 11.7055Z" fill="white"/>
<g clip-path="url(#clip0)">
<path d="M43.0004 44.4508C43.0079 44.5696 42.9845 44.6882 42.9326 44.7956C42.8282 44.7222 42.7452 44.6231 42.6918 44.5083L36.7655 33.4505C36.6731 33.2758 36.6626 33.1483 36.693 33.0988C36.7234 33.0494 36.8449 33 37.0436 33H42.4616C42.8321 33 42.9595 33.1207 42.9595 33.4793L43.0004 44.4508Z" fill="#29B6F6"/>
<path d="M42.6822 47.9C42.6518 47.9494 42.5303 48 42.3316 48H36.6133C36.4671 48.0138 36.3203 47.9805 36.195 47.905C36.0698 47.8295 35.9729 47.716 35.9191 47.5816L28.3507 33.4505C28.2525 33.2758 28.242 33.1483 28.2724 33.0988C28.3028 33.0494 28.4232 33 28.6242 33H34.3636C34.7142 33 34.9047 33.1149 35.0578 33.4172L42.6098 47.5541C42.7021 47.7242 42.7126 47.8506 42.6822 47.9Z" fill="#FF5252"/>
<path d="M34.2795 47.9001C34.2491 47.9495 34.1287 48.0001 33.9289 48.0001H28.4863C28.1357 48.0001 28.0002 47.8656 28.0002 47.522V36.5941C27.9914 36.4706 28.0181 36.3471 28.0773 36.2378C28.1791 36.3058 28.26 36.4 28.311 36.5102L34.2105 47.5438C34.2994 47.7231 34.311 47.8507 34.2795 47.9001Z" fill="#FFB300"/>
</g>
<defs>
<clipPath id="clip0">
<rect x="28" y="33" width="15" height="15" fill="white"/>
</clipPath>
</defs>
</svg>
