<svg width="88" height="32" viewBox="0 0 88 32" fill="none" xmlns="http://www.w3.org/2000/svg">
<g clip-path="url(#clip0)">
<path d="M37.2571 17.3714L40.7886 21.7142H38L34.8571 17.7257V21.7142H32.5714V10.2857H34.8571V17.0057L37.76 13.7143H40.6742L37.2571 17.3714V17.3714ZM28.1143 13.4858C27.6138 13.4932 27.1226 13.6219 26.6827 13.8608C26.2429 14.0996 25.8675 14.4415 25.5886 14.8571V13.7143H23.4286V21.7142H25.7142V17.9771C25.6842 17.7059 25.7104 17.4313 25.791 17.1706C25.8717 16.9099 26.0052 16.6686 26.1831 16.4617C26.3611 16.2548 26.5797 16.0867 26.8254 15.9679C27.0712 15.8492 27.3387 15.7823 27.6114 15.7714C28.9371 15.7714 29.1429 17.0743 29.1429 17.9771V21.7142H31.4286V17.4742C31.4286 14.96 30.5942 13.4858 28.16 13.4858H28.1143V13.4858ZM48.5714 17.8971C48.5801 18.0646 48.5801 18.2325 48.5714 18.4H42.5714V18.48C42.6688 18.9566 42.9328 19.3829 43.3161 19.6824C43.6994 19.9819 44.1769 20.135 44.6629 20.1143C45.0484 20.131 45.4334 20.0698 45.7947 19.9343C46.156 19.7989 46.4863 19.5919 46.7658 19.3258L48.2858 20.4686C47.804 20.9602 47.2245 21.3454 46.5848 21.5994C45.945 21.8533 45.2591 21.9703 44.5714 21.9429C44.0018 21.9789 43.4311 21.8922 42.8979 21.6888C42.3647 21.4853 41.8814 21.1698 41.4805 20.7635C41.0797 20.3573 40.7707 19.8697 40.5745 19.3338C40.3782 18.7979 40.2992 18.2262 40.3429 17.6571C40.3312 17.0954 40.4353 16.5373 40.6488 16.0175C40.8622 15.4978 41.1804 15.0276 41.5836 14.6362C41.9867 14.2449 42.4662 13.9408 42.992 13.7428C43.5179 13.5449 44.0789 13.4574 44.64 13.4858C46.7886 13.4858 48.5714 15.0058 48.5714 17.8971ZM46.4458 16.9143C46.4373 16.6879 46.3829 16.4656 46.2858 16.2609C46.1887 16.0563 46.051 15.8735 45.881 15.7238C45.711 15.5741 45.5122 15.4606 45.2969 15.3902C45.0816 15.3198 44.8542 15.2939 44.6286 15.3142C43.6236 15.2056 42.7135 15.9135 42.5714 16.9143H46.4458ZM14.2857 10.2857H12V21.7142H18.8571V19.4288H14.2857V10.2857ZM55.4286 10.2857H57.7142V21.7142H55.5542V20.9143C55.28 21.2522 54.9304 21.5212 54.5335 21.6998C54.1366 21.8784 53.7034 21.9617 53.2686 21.9429C52.7374 21.9292 52.2146 21.8071 51.7323 21.584C51.25 21.3608 50.8184 21.0414 50.4641 20.6454C50.1098 20.2493 49.8403 19.785 49.672 19.2809C49.5038 18.7769 49.4404 18.2437 49.4857 17.7142C49.4318 17.184 49.4888 16.6484 49.6531 16.1414C49.8174 15.6344 50.0855 15.1672 50.4402 14.7695C50.795 14.3717 51.2286 14.0522 51.7136 13.8312C52.1986 13.6102 52.7242 13.4925 53.2571 13.4858C53.6541 13.4684 54.0505 13.5301 54.4233 13.6675C54.7961 13.8048 55.1378 14.015 55.4286 14.2857V10.2857V10.2857ZM55.6 17.7142C55.6359 17.4503 55.6149 17.1818 55.5382 16.9267C55.4616 16.6717 55.3311 16.436 55.1557 16.2356C54.9802 16.0353 54.7638 15.8748 54.5211 15.7652C54.2784 15.6555 54.015 15.5992 53.7486 15.6C52.6553 15.6794 51.8267 16.6196 51.8857 17.7142C51.8267 18.8089 52.6553 19.7492 53.7486 19.8286C54.015 19.8294 54.2784 19.7731 54.5211 19.6634C54.7639 19.5538 54.9802 19.3933 55.1557 19.193C55.3312 18.9926 55.4616 18.7569 55.5383 18.5018C55.6149 18.2467 55.636 17.9782 55.6 17.7142V17.7142ZM21.1429 10.0571C20.7753 10.0623 20.4234 10.2068 20.1583 10.4614C19.8931 10.716 19.7344 11.0617 19.7143 11.4288C19.7143 12.2176 20.3539 12.8573 21.1429 12.8573C21.9319 12.8573 22.5712 12.2175 22.5712 11.4288C22.5511 11.0618 22.3924 10.7161 22.1272 10.4615C21.8621 10.207 21.5103 10.0625 21.1427 10.0573L21.1429 10.0571ZM20 21.7142H22.2858V13.7143H20V21.7142ZM76 9.14287V22.8571C76 23.1602 75.8796 23.4509 75.6653 23.6653C75.4509 23.8796 75.1602 24 74.8571 24H61.1429C60.8398 24 60.5491 23.8796 60.3347 23.6653C60.1204 23.4509 60 23.1602 60 22.8571V9.14287C60 8.83977 60.1204 8.54907 60.3347 8.33474C60.5491 8.12041 60.8398 8 61.1429 8H74.8571C75.1602 8 75.4509 8.12041 75.6653 8.33474C75.8796 8.54907 76 8.83977 76 9.14287V9.14287ZM64.5714 13.7143H62.2858V21.7142H64.5714V13.7143ZM64.8571 11.4286C64.8571 10.6396 64.2175 10 63.4286 10C62.6396 10 62 10.6396 62 11.4286C62 12.2175 62.6396 12.8571 63.4286 12.8571C64.2175 12.8571 64.8571 12.2175 64.8571 11.4286V11.4286ZM73.7142 17.4742C73.7142 14.96 72.88 13.4858 70.4458 13.4858C69.9375 13.4858 69.4371 13.6109 68.9886 13.8501C68.5402 14.0892 68.1574 14.4351 67.8742 14.8571V13.7143H65.7142V21.7142H68V17.9771C67.97 17.7059 67.9961 17.4313 68.0768 17.1706C68.1575 16.9099 68.2909 16.6686 68.4689 16.4617C68.6468 16.2548 68.8655 16.0867 69.1112 15.9679C69.3569 15.8492 69.6244 15.7823 69.8971 15.7714C71.2229 15.7714 71.4286 17.0743 71.4286 17.9771V21.7142H73.7142V17.4742Z" fill="#0A66C2"/>
</g>
<rect x="0.25" y="0.25" width="87.5" height="31.5" rx="3.75" stroke="#0A66C2" stroke-width="0.5"/>
<defs>
<clipPath id="clip0">
<rect width="64" height="16" fill="white" transform="translate(12 8)"/>
</clipPath>
</defs>
</svg>
