<svg width="98" height="32" viewBox="0 0 98 32" fill="none" xmlns="http://www.w3.org/2000/svg">
<path d="M21.0721 11.8178L11.4999 17.2719C11.4404 17.3106 11.3707 17.3312 11.2995 17.3312C11.2283 17.3312 11.1587 17.3106 11.0991 17.2719C11.0317 17.2406 10.9774 17.1869 10.9459 17.1201C10.9284 17.055 10.9284 16.9866 10.9459 16.9215V5.98991C10.9284 5.92486 10.9284 5.85641 10.9459 5.79136C10.9816 5.73045 11.035 5.68161 11.0991 5.65121C11.1587 5.61253 11.2283 5.59192 11.2995 5.59192C11.3707 5.59192 11.4404 5.61253 11.4999 5.65121L21.0839 11.1287C21.1422 11.1628 21.1909 11.211 21.2253 11.2689C21.2755 11.3124 21.3123 11.369 21.3314 11.4324C21.3489 11.4974 21.3489 11.5659 21.3314 11.6309C21.2645 11.7162 21.1746 11.781 21.0721 11.8178V11.8178Z" fill="#29B6F6"/>
<path d="M15.4146 21.1155L5.77575 26.8744C5.71587 26.9147 5.64582 26.9361 5.5742 26.9361C5.50259 26.9361 5.43254 26.9147 5.37265 26.8744C5.31053 26.8393 5.25764 26.7893 5.21852 26.7286C5.20092 26.661 5.20092 26.5897 5.21852 26.5221V15.0529C5.20196 14.9851 5.20196 14.9142 5.21852 14.8464C5.26038 14.7946 5.31305 14.7531 5.37265 14.7249C5.43254 14.6846 5.50259 14.6632 5.5742 14.6632C5.64582 14.6632 5.71587 14.6846 5.77575 14.7249L15.4146 20.423C15.4765 20.4598 15.5261 20.5149 15.5569 20.581C15.5962 20.6423 15.6171 20.7141 15.6171 20.7875C15.6171 20.8609 15.5962 20.9327 15.5569 20.994C15.5193 21.0453 15.4706 21.0869 15.4146 21.1155Z" fill="#FFB300"/>
<path d="M10.2099 11.8178L0.558991 17.2728C0.498152 17.3095 0.42852 17.3296 0.357189 17.3312C0.285858 17.3296 0.216225 17.3095 0.155387 17.2728C0.0934709 17.2374 0.0438289 17.1845 0.0129382 17.1209C-0.00414997 17.0558 -0.00414997 16.9875 0.0129382 16.9224V5.98907C-0.00414997 5.92395 -0.00414997 5.85562 0.0129382 5.79049C0.0476171 5.73267 0.0966266 5.68445 0.155387 5.65032C0.216225 5.61365 0.285858 5.59349 0.357189 5.59192C0.42852 5.59349 0.498152 5.61365 0.558991 5.65032L10.2099 11.1287C10.2686 11.1628 10.3177 11.211 10.3523 11.2688C10.3867 11.3171 10.4072 11.3736 10.4117 11.4324C10.4143 11.5068 10.3936 11.5802 10.3523 11.6426C10.323 11.7133 10.2735 11.7741 10.2099 11.8178Z" fill="#FF5252"/>
<path d="M36.1844 8.80601C35.231 8.76332 34.5622 8.91985 34.178 9.27559C33.7938 9.61709 33.6017 10.2076 33.6017 11.0472V11.2392H36.1844V13.331H33.6017V22.9999H31.1472V13.331H29.5464V11.2392H31.1472V10.8551C31.1472 9.41788 31.5669 8.34356 32.4065 7.63208C33.246 6.90638 34.5053 6.58622 36.1844 6.6716V8.80601ZM37.7987 7.82418C37.7987 7.41153 37.941 7.07002 38.2256 6.79966C38.5102 6.5293 38.8873 6.39412 39.3568 6.39412C39.8264 6.39412 40.2035 6.5293 40.4881 6.79966C40.7869 7.07002 40.9363 7.41153 40.9363 7.82418C40.9363 8.23684 40.7869 8.57123 40.4881 8.82736C40.2035 9.08349 39.8264 9.21155 39.3568 9.21155C38.8873 9.21155 38.5102 9.08349 38.2256 8.82736C37.941 8.57123 37.7987 8.23684 37.7987 7.82418ZM40.5735 11.2392V22.9999H38.1402V11.2392H40.5735ZM48.235 11.0898C49.3022 11.0898 50.2129 11.3531 50.9671 11.8796C51.7212 12.4061 52.2477 13.1033 52.5465 13.9713V7.2052H55.0011V22.9999H52.5465V20.2678C52.2477 21.1358 51.7212 21.8331 50.9671 22.3596C50.2129 22.886 49.3022 23.1493 48.235 23.1493C47.2105 23.1493 46.2927 22.9074 45.4816 22.4236C44.6848 21.9398 44.0587 21.2425 43.6033 20.3319C43.148 19.4212 42.9203 18.3469 42.9203 17.1089C42.9203 15.8852 43.148 14.818 43.6033 13.9073C44.0587 12.9966 44.6848 12.2993 45.4816 11.8155C46.2927 11.3317 47.2105 11.0898 48.235 11.0898ZM48.982 13.2243C47.9006 13.2243 47.0326 13.5729 46.3781 14.2701C45.7377 14.9531 45.4176 15.8994 45.4176 17.1089C45.4176 18.3184 45.7377 19.2718 46.3781 19.969C47.0326 20.652 47.9006 20.9935 48.982 20.9935C49.6651 20.9935 50.2769 20.837 50.8176 20.524C51.3584 20.1967 51.7852 19.7413 52.0983 19.1579C52.4113 18.5745 52.5679 17.8915 52.5679 17.1089C52.5679 16.3405 52.4113 15.6646 52.0983 15.0812C51.7852 14.4836 51.3584 14.0282 50.8176 13.7152C50.2769 13.3879 49.6651 13.2243 48.982 13.2243ZM57.5796 7.82418C57.5796 7.41153 57.7219 7.07002 58.0065 6.79966C58.291 6.5293 58.6681 6.39412 59.1377 6.39412C59.6073 6.39412 59.9843 6.5293 60.2689 6.79966C60.5678 7.07002 60.7172 7.41153 60.7172 7.82418C60.7172 8.23684 60.5678 8.57123 60.2689 8.82736C59.9843 9.08349 59.6073 9.21155 59.1377 9.21155C58.6681 9.21155 58.291 9.08349 58.0065 8.82736C57.7219 8.57123 57.5796 8.23684 57.5796 7.82418ZM60.3543 11.2392V22.9999H57.9211V11.2392H60.3543ZM67.1621 11.0898C68.5424 11.0898 69.6451 11.4456 70.4704 12.157C71.31 12.8543 71.8222 13.7934 72.0072 14.9745H69.7021C69.6024 14.3341 69.325 13.8219 68.8696 13.4377C68.4285 13.0393 67.838 12.8401 67.0981 12.8401C66.4862 12.8401 66.0095 12.9895 65.668 13.2883C65.3407 13.5729 65.1771 13.9642 65.1771 14.4622C65.1771 14.8322 65.298 15.131 65.5399 15.3587C65.7818 15.5863 66.0807 15.7642 66.4364 15.8923C66.8064 16.0203 67.3257 16.1626 67.9945 16.3192C68.8767 16.5184 69.5882 16.7247 70.1289 16.9381C70.6839 17.1516 71.1535 17.4931 71.5377 17.9627C71.9361 18.418 72.1353 19.0441 72.1353 19.8409C72.1353 20.8228 71.7582 21.6196 71.004 22.2315C70.2641 22.8434 69.2609 23.1493 67.9945 23.1493C66.5289 23.1493 65.3407 22.8078 64.43 22.1248C63.5336 21.4418 62.9929 20.4884 62.8079 19.2647H65.1771C65.2482 19.905 65.5328 20.4243 66.0309 20.8228C66.5289 21.2212 67.1834 21.4204 67.9945 21.4204C68.5779 21.4204 69.0333 21.271 69.3605 20.9722C69.7021 20.6591 69.8728 20.2678 69.8728 19.7983C69.8728 19.3856 69.7447 19.0583 69.4886 18.8164C69.2325 18.5745 68.9123 18.3895 68.5281 18.2615C68.1439 18.1192 67.6174 17.9769 66.9487 17.8346C66.0949 17.6354 65.3977 17.4362 64.8569 17.237C64.3304 17.0377 63.8751 16.7176 63.4909 16.2765C63.1209 15.8211 62.936 15.2093 62.936 14.4409C62.936 13.4448 63.3059 12.6408 64.0459 12.029C64.8 11.4029 65.8388 11.0898 67.1621 11.0898ZM75.9627 11.2392L79.4845 19.8836L82.7502 11.2392H85.4609L78.3533 28.592H75.6426L78.1825 22.7224L73.2307 11.2392H75.9627ZM90.9241 11.0898C92.3044 11.0898 93.4072 11.4456 94.2325 12.157C95.072 12.8543 95.5843 13.7934 95.7693 14.9745H93.4641C93.3645 14.3341 93.087 13.8219 92.6317 13.4377C92.1906 13.0393 91.6 12.8401 90.8601 12.8401C90.2482 12.8401 89.7716 12.9895 89.4301 13.2883C89.1028 13.5729 88.9391 13.9642 88.9391 14.4622C88.9391 14.8322 89.0601 15.131 89.302 15.3587C89.5439 15.5863 89.8427 15.7642 90.1984 15.8923C90.5684 16.0203 91.0878 16.1626 91.7566 16.3192C92.6388 16.5184 93.3503 16.7247 93.891 16.9381C94.4459 17.1516 94.9155 17.4931 95.2997 17.9627C95.6981 18.418 95.8973 19.0441 95.8973 19.8409C95.8973 20.8228 95.5203 21.6196 94.7661 22.2315C94.0262 22.8434 93.023 23.1493 91.7566 23.1493C90.2909 23.1493 89.1028 22.8078 88.1921 22.1248C87.2956 21.4418 86.7549 20.4884 86.5699 19.2647H88.9391C89.0103 19.905 89.2949 20.4243 89.7929 20.8228C90.2909 21.2212 90.9455 21.4204 91.7566 21.4204C92.34 21.4204 92.7953 21.271 93.1226 20.9722C93.4641 20.6591 93.6349 20.2678 93.6349 19.7983C93.6349 19.3856 93.5068 19.0583 93.2507 18.8164C92.9945 18.5745 92.6744 18.3895 92.2902 18.2615C91.906 18.1192 91.3795 17.9769 90.7107 17.8346C89.8569 17.6354 89.1597 17.4362 88.619 17.237C88.0925 17.0377 87.6371 16.7176 87.253 16.2765C86.883 15.8211 86.698 15.2093 86.698 14.4409C86.698 13.4448 87.068 12.6408 87.8079 12.029C88.5621 11.4029 89.6008 11.0898 90.9241 11.0898Z" fill="white"/>
</svg>
