<svg width="94" height="27" viewBox="0 0 94 27" fill="none" xmlns="http://www.w3.org/2000/svg">
<path d="M18.5792 10.0774L10.5068 14.677C10.4565 14.7096 10.3978 14.727 10.3378 14.727C10.2777 14.727 10.219 14.7096 10.1687 14.677C10.1119 14.6506 10.0661 14.6053 10.0395 14.5489C10.0248 14.4941 10.0248 14.4363 10.0395 14.3815V5.1626C10.0248 5.10774 10.0248 5.05002 10.0395 4.99516C10.0696 4.94379 10.1147 4.9026 10.1687 4.87697C10.219 4.84435 10.2777 4.82697 10.3378 4.82697C10.3978 4.82697 10.4565 4.84435 10.5068 4.87697L18.5891 9.49626C18.6383 9.52503 18.6794 9.5657 18.7084 9.61445C18.7507 9.65114 18.7818 9.69894 18.7979 9.75234C18.8126 9.8072 18.8126 9.86492 18.7979 9.91978C18.7414 9.99171 18.6656 10.0463 18.5792 10.0774Z" fill="#29B6F6"/>
<path d="M13.809 17.9183L5.68028 22.7749C5.62977 22.8088 5.5707 22.8269 5.5103 22.8269C5.44991 22.8269 5.39083 22.8088 5.34033 22.7749C5.28794 22.7453 5.24334 22.7031 5.21035 22.652C5.19551 22.5949 5.19551 22.5348 5.21035 22.4778V12.8056C5.19638 12.7484 5.19638 12.6886 5.21035 12.6314C5.24565 12.5877 5.29007 12.5527 5.34033 12.5289C5.39083 12.495 5.44991 12.4769 5.5103 12.4769C5.5707 12.4769 5.62977 12.495 5.68028 12.5289L13.809 17.3343C13.8611 17.3653 13.9029 17.4118 13.929 17.4675C13.9621 17.5193 13.9797 17.5798 13.9797 17.6417C13.9797 17.7036 13.9621 17.7641 13.929 17.8159C13.8973 17.8591 13.8562 17.8942 13.809 17.9183Z" fill="#FFB300"/>
<path d="M9.41908 10.0774L1.28027 14.6777C1.22896 14.7086 1.17024 14.7256 1.11008 14.727C1.04993 14.7256 0.991205 14.7086 0.939898 14.6777C0.887683 14.6479 0.845819 14.6032 0.819768 14.5497C0.805357 14.4947 0.805357 14.4371 0.819768 14.3822V5.16189C0.805357 5.10697 0.805357 5.04935 0.819768 4.99443C0.849014 4.94567 0.890344 4.905 0.939898 4.87622C0.991205 4.84529 1.04993 4.82829 1.11008 4.82697C1.17024 4.82829 1.22896 4.84529 1.28027 4.87622L9.41908 9.49622C9.46863 9.525 9.50996 9.56567 9.53921 9.61443C9.56822 9.65512 9.58551 9.70277 9.58926 9.75234C9.5915 9.8151 9.57403 9.87702 9.53921 9.92965C9.51443 9.98924 9.47272 10.0405 9.41908 10.0774Z" fill="#FF5252"/>
<path opacity="0.8" d="M31.1438 7.778C30.2678 7.766 29.6558 7.916 29.3078 8.228C28.9718 8.54 28.8038 9.08 28.8038 9.848V10.118H31.1438V11.558H28.8038V20H27.1658V11.558H25.7438V10.118H27.1658V9.722C27.1658 7.358 28.4918 6.23 31.1438 6.338V7.778ZM32.6342 7.22C32.6342 6.92 32.7362 6.68 32.9402 6.5C33.1442 6.308 33.4142 6.212 33.7502 6.212C34.0862 6.212 34.3562 6.308 34.5602 6.5C34.7642 6.68 34.8662 6.92 34.8662 7.22C34.8662 7.52 34.7642 7.766 34.5602 7.958C34.3562 8.138 34.0862 8.228 33.7502 8.228C33.4142 8.228 33.1442 8.138 32.9402 7.958C32.7362 7.766 32.6342 7.52 32.6342 7.22ZM34.5602 10.118V20H32.9222V10.118H34.5602ZM41.2436 9.992C42.2036 9.992 43.0136 10.232 43.6736 10.712C44.3456 11.192 44.8136 11.834 45.0776 12.638V6.68H46.7156V20H45.0776V17.48C44.8136 18.284 44.3456 18.926 43.6736 19.406C43.0136 19.886 42.2036 20.126 41.2436 20.126C40.3676 20.126 39.5876 19.922 38.9036 19.514C38.2196 19.106 37.6796 18.524 37.2836 17.768C36.8996 17 36.7076 16.1 36.7076 15.068C36.7076 14.036 36.8996 13.136 37.2836 12.368C37.6796 11.6 38.2196 11.012 38.9036 10.604C39.5876 10.196 40.3676 9.992 41.2436 9.992ZM41.7116 11.45C40.7036 11.45 39.8936 11.774 39.2816 12.422C38.6816 13.058 38.3816 13.94 38.3816 15.068C38.3816 16.196 38.6816 17.084 39.2816 17.732C39.8936 18.368 40.7036 18.686 41.7116 18.686C42.3596 18.686 42.9356 18.536 43.4396 18.236C43.9556 17.936 44.3576 17.516 44.6456 16.976C44.9336 16.424 45.0776 15.788 45.0776 15.068C45.0776 14.348 44.9336 13.712 44.6456 13.16C44.3576 12.608 43.9556 12.188 43.4396 11.9C42.9356 11.6 42.3596 11.45 41.7116 11.45ZM49.0345 7.22C49.0345 6.92 49.1365 6.68 49.3405 6.5C49.5445 6.308 49.8145 6.212 50.1505 6.212C50.4865 6.212 50.7565 6.308 50.9605 6.5C51.1645 6.68 51.2665 6.92 51.2665 7.22C51.2665 7.52 51.1645 7.766 50.9605 7.958C50.7565 8.138 50.4865 8.228 50.1505 8.228C49.8145 8.228 49.5445 8.138 49.3405 7.958C49.1365 7.766 49.0345 7.52 49.0345 7.22ZM50.9605 10.118V20H49.3225V10.118H50.9605ZM56.69 9.992C57.806 9.992 58.7 10.286 59.372 10.874C60.056 11.45 60.47 12.23 60.614 13.214H59.048C58.976 12.626 58.73 12.146 58.31 11.774C57.902 11.39 57.35 11.198 56.654 11.198C56.066 11.198 55.604 11.342 55.268 11.63C54.944 11.906 54.782 12.284 54.782 12.764C54.782 13.124 54.89 13.418 55.106 13.646C55.334 13.862 55.61 14.03 55.934 14.15C56.27 14.258 56.726 14.378 57.302 14.51C58.034 14.678 58.622 14.852 59.066 15.032C59.522 15.2 59.906 15.476 60.218 15.86C60.542 16.244 60.704 16.76 60.704 17.408C60.704 18.212 60.398 18.866 59.786 19.37C59.186 19.874 58.382 20.126 57.374 20.126C56.198 20.126 55.238 19.844 54.494 19.28C53.75 18.716 53.312 17.93 53.18 16.922H54.764C54.824 17.522 55.082 18.008 55.538 18.38C56.006 18.752 56.618 18.938 57.374 18.938C57.938 18.938 58.376 18.794 58.688 18.506C59.012 18.218 59.174 17.84 59.174 17.372C59.174 16.988 59.06 16.682 58.832 16.454C58.604 16.226 58.322 16.052 57.986 15.932C57.65 15.812 57.188 15.686 56.6 15.554C55.868 15.386 55.28 15.218 54.836 15.05C54.404 14.882 54.032 14.618 53.72 14.258C53.42 13.886 53.27 13.388 53.27 12.764C53.27 11.936 53.576 11.27 54.188 10.766C54.8 10.25 55.634 9.992 56.69 9.992ZM63.5769 10.118L66.7809 17.894L69.7509 10.118H71.5689L65.7009 24.68H63.8469L65.8989 19.838L61.7409 10.118H63.5769ZM76.1666 9.992C77.2826 9.992 78.1766 10.286 78.8486 10.874C79.5326 11.45 79.9466 12.23 80.0906 13.214H78.5246C78.4526 12.626 78.2066 12.146 77.7866 11.774C77.3786 11.39 76.8266 11.198 76.1306 11.198C75.5426 11.198 75.0806 11.342 74.7446 11.63C74.4206 11.906 74.2586 12.284 74.2586 12.764C74.2586 13.124 74.3666 13.418 74.5826 13.646C74.8106 13.862 75.0866 14.03 75.4106 14.15C75.7466 14.258 76.2026 14.378 76.7786 14.51C77.5106 14.678 78.0986 14.852 78.5426 15.032C78.9986 15.2 79.3826 15.476 79.6946 15.86C80.0186 16.244 80.1806 16.76 80.1806 17.408C80.1806 18.212 79.8746 18.866 79.2626 19.37C78.6626 19.874 77.8586 20.126 76.8506 20.126C75.6746 20.126 74.7146 19.844 73.9706 19.28C73.2266 18.716 72.7886 17.93 72.6566 16.922H74.2406C74.3006 17.522 74.5586 18.008 75.0146 18.38C75.4826 18.752 76.0946 18.938 76.8506 18.938C77.4146 18.938 77.8526 18.794 78.1646 18.506C78.4886 18.218 78.6506 17.84 78.6506 17.372C78.6506 16.988 78.5366 16.682 78.3086 16.454C78.0806 16.226 77.7986 16.052 77.4626 15.932C77.1266 15.812 76.6646 15.686 76.0766 15.554C75.3446 15.386 74.7566 15.218 74.3126 15.05C73.8806 14.882 73.5086 14.618 73.1966 14.258C72.8966 13.886 72.7466 13.388 72.7466 12.764C72.7466 11.936 73.0526 11.27 73.6646 10.766C74.2766 10.25 75.1106 9.992 76.1666 9.992Z" fill="#444444"/>
</svg>
