<svg width="57" height="56" viewBox="0 0 57 56" fill="none" xmlns="http://www.w3.org/2000/svg">
<path d="M7.76467 17.3835L27.1548 26.6379C27.6597 26.8757 28.3335 27 29.0005 27C29.6674 27 30.3413 26.8757 30.8452 26.6379L50.2353 17.3835C51.2549 16.8981 51.2549 16.1039 50.2353 15.6165L30.8452 6.36214C30.3413 6.12427 29.6664 6 29.0005 6C28.3345 6 27.6597 6.12427 27.1548 6.36214L7.76467 15.6165C6.74507 16.1039 6.74507 16.8961 7.76467 17.3835V17.3835Z" fill="#B1C0D6"/>
<path d="M50.2385 27.0092C50.2385 27.0092 46.6992 25.3784 46.2299 25.1588C45.7606 24.9392 45.634 24.9514 45.1411 25.1701C44.6483 25.3887 30.8466 31.76 30.8466 31.76C30.2648 32.0001 29.6365 32.1197 29.0028 32.111C28.3382 32.111 27.6627 31.9899 27.1591 31.76C27.1591 31.76 13.7236 25.567 13.0933 25.2686C12.411 24.9543 12.2146 24.9543 11.5932 25.2358L7.76428 26.998C6.7452 27.4671 6.7452 28.2356 7.76428 28.7057L27.1473 37.65C27.651 37.8799 28.3254 38 28.9911 38C29.6567 38 30.3312 37.8799 30.8358 37.65L50.2159 28.7076C51.2575 28.246 51.2575 27.4803 50.2385 27.0092V27.0092Z" fill="#B1C0D6"/>
<path d="M50.237 38.1655C50.237 38.1655 46.697 36.4112 46.2276 36.172C45.7583 35.9328 45.6316 35.9489 45.1386 36.1841C44.6457 36.4193 30.8531 43.2879 30.8531 43.2879C30.2711 43.5457 29.6426 43.674 29.0089 43.6644C28.3441 43.6644 27.6685 43.5352 27.1638 43.2879C27.1638 43.2879 13.7257 36.6262 13.0962 36.3052C12.4089 35.9631 12.2125 35.9631 11.5948 36.2699L7.76516 38.1655C6.7449 38.6701 6.7449 39.4958 7.76516 40.0025L27.1491 49.6235C27.6528 49.8819 28.3274 50 28.9932 50C29.659 50 30.3336 49.8708 30.8373 49.6235L50.2252 40.0075C51.2563 39.4958 51.2563 38.6721 50.237 38.1655Z" fill="#B1C0D6"/>
</svg>
