<svg width="58" height="58" viewBox="0 0 58 58" fill="none" xmlns="http://www.w3.org/2000/svg">
<path d="M51.9548 16.7661C51.9524 15.9375 51.8767 15.1107 51.7286 14.2955C51.5632 13.2988 51.2486 12.3328 50.7952 11.43C50.2981 10.4813 49.6509 9.61917 48.8786 8.87696C47.7133 7.7375 46.2745 6.91705 44.7004 6.49451C43.2542 6.14402 41.7682 5.98548 40.2807 6.023L40.273 6H17.7182V6.023C16.8716 6.01614 16.0252 6.05389 15.1826 6.13608C14.2607 6.23467 13.3532 6.43919 12.4782 6.74559C11.0356 7.28888 9.74137 8.16472 8.7007 9.30201C7.66003 10.4393 6.90221 11.806 6.48877 13.2911C6.14067 14.7247 5.98216 16.1978 6.01728 17.6727L6.00003 40.3012C6.01471 41.3258 6.08445 42.3488 6.20894 43.366C6.36257 44.4392 6.67995 45.4825 7.15 46.4595C7.81367 47.7644 8.7582 48.906 9.91568 49.8022C10.7427 50.4614 11.6796 50.9694 12.6833 51.303C14.1567 51.7578 15.6914 51.9827 17.2333 51.97C18.1993 51.9757 19.1634 52.0007 20.1274 51.9968C27.1423 51.9662 34.1552 52.0467 41.1681 51.9527C42.0946 51.9325 43.0179 51.8344 43.928 51.6595C45.6479 51.3571 47.2487 50.5789 48.549 49.4131C50.08 48.0838 51.1491 46.3025 51.6021 44.3262C51.8809 43.003 52.0139 41.6533 51.9989 40.3012V40.0309C51.9989 39.9255 51.9606 17.0689 51.9548 16.7661Z" fill="#B1C0D6"/>
<path d="M41.6931 26.3867L31.8254 32.0092C31.7641 32.0491 31.6923 32.0704 31.6189 32.0704C31.5455 32.0704 31.4736 32.0491 31.4123 32.0092C31.3427 31.977 31.2868 31.9216 31.2543 31.8527C31.2362 31.7857 31.2362 31.7151 31.2543 31.648V20.3789C31.2362 20.3119 31.2362 20.2413 31.2543 20.1742C31.2911 20.1114 31.3461 20.0611 31.4123 20.0298C31.4736 19.9899 31.5455 19.9686 31.6189 19.9686C31.6923 19.9686 31.7641 19.9899 31.8254 20.0298L41.7053 25.6764C41.7654 25.7115 41.8156 25.7612 41.8511 25.8208C41.9029 25.8657 41.9408 25.9241 41.9605 25.9894C41.9785 26.0565 41.9785 26.127 41.9605 26.1941C41.8915 26.282 41.7988 26.3488 41.6931 26.3867V26.3867Z" fill="black"/>
<path d="M35.861 35.9714L25.9245 41.9081C25.8628 41.9496 25.7905 41.9717 25.7167 41.9717C25.6429 41.9717 25.5707 41.9496 25.5089 41.9081C25.4449 41.8719 25.3904 41.8204 25.3501 41.7578C25.3319 41.6881 25.3319 41.6147 25.3501 41.5449V29.7216C25.333 29.6517 25.333 29.5786 25.3501 29.5087C25.3932 29.4553 25.4475 29.4125 25.5089 29.3835C25.5707 29.342 25.6429 29.3199 25.7167 29.3199C25.7905 29.3199 25.8628 29.342 25.9245 29.3835L35.861 35.2575C35.9247 35.2955 35.9758 35.3522 36.0076 35.4204C36.0481 35.4836 36.0697 35.5576 36.0697 35.6333C36.0697 35.7089 36.0481 35.7829 36.0076 35.8462C35.9689 35.899 35.9187 35.9419 35.861 35.9714Z" fill="black"/>
<path d="M30.4955 26.387L20.5466 32.0104C20.4839 32.0482 20.4121 32.069 20.3386 32.0706C20.2651 32.069 20.1933 32.0482 20.1306 32.0104C20.0667 31.9739 20.0156 31.9194 19.9837 31.8539C19.9661 31.7867 19.9661 31.7163 19.9837 31.6492V20.3783C19.9661 20.3111 19.9661 20.2407 19.9837 20.1736C20.0195 20.114 20.07 20.0643 20.1306 20.0291C20.1933 19.9913 20.2651 19.9705 20.3386 19.9689C20.4121 19.9705 20.4839 19.9913 20.5466 20.0291L30.4955 25.6766C30.5561 25.7117 30.6066 25.7615 30.6423 25.8211C30.6778 25.8708 30.6989 25.929 30.7035 25.9896C30.7063 26.0664 30.6849 26.142 30.6423 26.2064C30.6121 26.2792 30.5611 26.3419 30.4955 26.387Z" fill="black"/>
</svg>
