<svg width="57" height="56" viewBox="0 0 57 56" fill="none" xmlns="http://www.w3.org/2000/svg">
<g clip-path="url(#clip0_5_1124)">
<path d="M49.5247 46.1572L43.1666 39.9727V16.1805L40.1638 10.7755C39.9423 10.3634 39.61 10.0184 39.2027 9.77772C38.7955 9.53703 38.3287 9.40981 37.853 9.40981C37.3772 9.40981 36.9105 9.53703 36.5033 9.77772C36.096 10.0184 35.7637 10.3634 35.5422 10.7755L32.7222 16.1933V29.8016L8.84355 6.54608C8.66094 6.36587 8.42763 6.24298 8.17338 6.19305C7.91913 6.14313 7.65544 6.16845 7.41595 6.26577C7.17645 6.36309 6.97199 6.52802 6.82864 6.73952C6.68529 6.95101 6.60954 7.1995 6.61105 7.4533V17.7777H9.4441V19.8222H6.61105V28H9.4441V30.0444H6.61105V38.5416H9.4441V40.5861H6.61105V47.0644C6.61105 47.4033 6.7486 47.7283 6.99344 47.9679C7.23827 48.2076 7.57035 48.3422 7.9166 48.3422H48.5977C48.857 48.3437 49.1109 48.2695 49.327 48.1292C49.5431 47.9889 49.7116 47.7888 49.8111 47.5544C49.9105 47.32 49.9364 47.0619 49.8854 46.8131C49.8343 46.5643 49.7088 46.3359 49.5247 46.1572V46.1572ZM17.0555 38.2222V26.6455L28.8969 38.2222H17.0555ZM40.5555 40.9183H35.3333V37.8133H40.5555V40.9183ZM40.5555 35.8072H35.3333V16.8194L37.866 12.0022L40.5555 16.8322V35.8072Z" fill="#B1C0D6"/>
</g>
<defs>
<clipPath id="clip0_5_1124">
<rect width="45.5336" height="45.5336" fill="white" transform="translate(5.02313 5)"/>
</clipPath>
</defs>
</svg>
