<svg width="641" height="231" viewBox="0 0 641 231" fill="none" xmlns="http://www.w3.org/2000/svg">
<path d="M57.2512 61.1081L47.7655 100.791H35.8662L29.5237 74.2422L23.125 100.791H11.2257L1.73999 61.1081H12.1799L17.2876 89.8459L24.2476 61.1081H34.7436L41.7036 89.8459L46.8674 61.1081H57.2512ZM82.16 69.1345C85.7523 69.1345 88.5961 70.3319 90.6916 72.7267C92.8245 75.1215 93.8909 78.4144 93.8909 82.6053V100.791H84.2929V83.7279C84.2929 81.6324 83.7317 80.0047 82.6091 78.8447C81.5239 77.6473 80.0646 77.0486 78.231 77.0486C76.2853 77.0486 74.7324 77.666 73.5724 78.9008C72.4498 80.1357 71.8885 81.8944 71.8885 84.1769V100.791H62.2905V59.2558H71.8885V75.1964C72.7866 73.3254 74.1149 71.8473 75.8736 70.7622C77.6698 69.677 79.7652 69.1345 82.16 69.1345ZM112.12 69.0783C114.515 69.0783 116.573 69.6209 118.295 70.7061C120.016 71.7912 121.288 73.2693 122.111 75.1402V69.4712H131.653V100.791H122.111V95.122C121.288 96.993 120.016 98.471 118.295 99.5562C116.573 100.641 114.515 101.184 112.12 101.184C109.539 101.184 107.219 100.548 105.161 99.2755C103.14 97.9659 101.531 96.0949 100.333 93.6627C99.1735 91.2304 98.5935 88.3866 98.5935 85.1311C98.5935 81.8382 99.1735 78.9944 100.333 76.5996C101.531 74.1673 103.14 72.3151 105.161 71.0428C107.219 69.7332 109.539 69.0783 112.12 69.0783ZM115.208 77.4976C113.149 77.4976 111.484 78.1712 110.212 79.5183C108.977 80.8653 108.36 82.7363 108.36 85.1311C108.36 87.5259 108.977 89.3969 110.212 90.744C111.484 92.0911 113.149 92.7646 115.208 92.7646C117.228 92.7646 118.875 92.0724 120.147 90.6879C121.457 89.3034 122.111 87.4511 122.111 85.1311C122.111 82.7737 121.457 80.9215 120.147 79.5744C118.875 78.1899 117.228 77.4976 115.208 77.4976ZM155.998 92.5401V100.791H151.676C148.009 100.791 145.147 99.893 143.089 98.0968C141.068 96.2633 140.058 93.2511 140.058 89.0601V77.5538H135.848V69.4712H140.058V61.7816H149.656V69.4712H155.942V77.5538H149.656V89.2285C149.656 90.4633 149.899 91.324 150.385 91.8104C150.909 92.2969 151.77 92.5401 152.967 92.5401H155.998ZM168.016 53.5307C168.727 55.6636 169.082 57.8713 169.082 60.1539C169.082 62.7358 168.409 64.8126 167.062 66.3842C165.752 67.9183 163.825 68.6854 161.28 68.6854V65.0932C163.226 65.0932 164.199 63.8397 164.199 61.3326V60.4345H160.663V53.5307H168.016ZM186.326 69.0783C190.292 69.0783 193.454 70.0699 195.811 72.0532C198.206 74.0364 199.703 76.6557 200.302 79.9112H191.321C191.059 78.6389 190.46 77.6473 189.525 76.9363C188.627 76.188 187.486 75.8138 186.101 75.8138C185.016 75.8138 184.193 76.057 183.631 76.5434C183.07 76.9925 182.789 77.6473 182.789 78.5079C182.789 79.4808 183.295 80.2105 184.305 80.697C185.353 81.1834 186.98 81.6699 189.188 82.1563C191.583 82.7176 193.547 83.2976 195.082 83.8963C196.616 84.4576 197.944 85.3931 199.067 86.7027C200.189 88.0124 200.751 89.7711 200.751 91.9788C200.751 93.7749 200.264 95.3652 199.291 96.7498C198.318 98.1343 196.915 99.2194 195.082 100.005C193.248 100.791 191.078 101.184 188.571 101.184C184.342 101.184 180.956 100.248 178.411 98.3775C175.867 96.5065 174.314 93.8311 173.753 90.3511H183.014C183.164 91.6982 183.725 92.7272 184.698 93.4382C185.708 94.1491 186.999 94.5046 188.571 94.5046C189.656 94.5046 190.479 94.2614 191.04 93.7749C191.602 93.2511 191.882 92.5775 191.882 91.7543C191.882 90.6692 191.358 89.9021 190.311 89.453C189.3 88.9666 187.635 88.4614 185.315 87.9376C182.995 87.4511 181.087 86.9272 179.59 86.366C178.093 85.8047 176.802 84.9066 175.717 83.6718C174.632 82.3995 174.09 80.6783 174.09 78.5079C174.09 75.7015 175.156 73.4377 177.289 71.7164C179.422 69.9577 182.434 69.0783 186.326 69.0783Z" fill="#FFFDFD"/>
<path d="M48.888 116.784L31.0111 151.224V168.372H18.4607V151.224L0.583738 116.784H14.8853L24.8089 137.798L34.7324 116.784H48.888ZM78.2032 115.981C83.0677 115.981 87.47 117.124 91.4103 119.411C95.3991 121.648 98.5367 124.786 100.823 128.823C103.109 132.812 104.253 137.336 104.253 142.395C104.253 147.454 103.085 152.003 100.75 156.04C98.4638 160.078 95.3262 163.24 91.3373 165.526C87.3971 167.764 83.019 168.882 78.2032 168.882C73.3874 168.882 68.985 167.764 64.9961 165.526C61.0559 163.24 57.9183 160.078 55.5834 156.04C53.2971 152.003 52.1539 147.454 52.1539 142.395C52.1539 137.336 53.2971 132.812 55.5834 128.823C57.9183 124.786 61.0559 121.648 64.9961 119.411C68.985 117.124 73.3874 115.981 78.2032 115.981ZM78.2032 127.583C74.117 127.583 70.8578 128.921 68.4256 131.596C66.042 134.223 64.8502 137.823 64.8502 142.395C64.8502 146.919 66.042 150.519 68.4256 153.194C70.8578 155.87 74.117 157.208 78.2032 157.208C82.2407 157.208 85.4756 155.87 87.9078 153.194C90.3401 150.519 91.5562 146.919 91.5562 142.395C91.5562 137.871 90.3401 134.272 87.9078 131.596C85.5242 128.921 82.2894 127.583 78.2032 127.583ZM123.374 116.784V146.554C123.374 149.96 124.128 152.562 125.636 154.362C127.193 156.162 129.431 157.062 132.349 157.062C135.268 157.062 137.481 156.162 138.989 154.362C140.546 152.562 141.324 149.96 141.324 146.554V116.784H153.802V146.554C153.802 151.419 152.853 155.529 150.956 158.886C149.059 162.194 146.456 164.699 143.149 166.401C139.889 168.055 136.192 168.882 132.058 168.882C127.923 168.882 124.274 168.055 121.112 166.401C117.951 164.748 115.47 162.242 113.67 158.886C111.87 155.529 110.97 151.419 110.97 146.554V116.784H123.374ZM188.627 168.372L177.463 148.889H174.617V168.372H162.139V116.784H183.446C187.532 116.784 190.986 117.489 193.807 118.9C196.629 120.31 198.745 122.256 200.155 124.737C201.566 127.169 202.271 129.966 202.271 133.128C202.271 136.874 201.226 140.06 199.134 142.687C197.091 145.314 194.099 147.114 190.159 148.087L202.417 168.372H188.627ZM174.617 140.352H182.351C184.832 140.352 186.656 139.817 187.824 138.747C188.991 137.628 189.575 135.998 189.575 133.858C189.575 131.815 188.967 130.21 187.751 129.042C186.583 127.875 184.784 127.291 182.351 127.291H174.617V140.352Z" fill="#FFFDFD"/>
<path d="M244.004 60.9698V169.437H217.77V60.9698H244.004ZM359.691 114.973C359.691 125.61 357.39 135.071 352.787 143.355C348.287 151.538 341.741 157.93 333.15 162.533C324.661 167.135 314.637 169.437 303.08 169.437H262.117V60.9698H303.08C314.74 60.9698 324.814 63.2199 333.303 67.7202C341.792 72.2205 348.287 78.5618 352.787 86.7441C357.39 94.9264 359.691 104.336 359.691 114.973ZM300.779 145.964C311.006 145.964 318.933 143.253 324.558 137.832C330.286 132.412 333.15 124.792 333.15 114.973C333.15 105.154 330.286 97.5345 324.558 92.1137C318.933 86.6929 311.006 83.9825 300.779 83.9825H288.352V145.964H300.779ZM400.868 81.8347V104.541H437.535V124.332H400.868V148.418H442.138V169.437H374.634V60.9698H442.138V81.8347H400.868ZM524.234 149.646H483.578L476.827 169.437H449.212L488.947 61.7369H519.171L558.906 169.437H530.984L524.234 149.646ZM517.483 129.701L503.982 89.8124L490.328 129.701H517.483ZM601.015 53.1455C611.856 53.1455 620.499 55.9581 626.942 61.5835C633.386 67.1065 636.608 75.0843 636.608 85.5167C636.608 95.2332 633.437 102.853 627.096 108.376C620.857 113.899 612.47 116.763 601.935 116.967V130.622H577.235V100.091H587.514C594.878 100.091 600.605 99.0687 604.697 97.0231C608.788 94.8752 610.833 91.0909 610.833 85.6701C610.833 82.1927 609.862 79.4823 607.918 77.539C605.975 75.5957 603.367 74.624 600.094 74.624C596.412 74.624 593.497 75.7491 591.349 77.9992C589.304 80.1471 588.281 82.9086 588.281 86.2838H563.581C563.376 80.1471 564.654 74.5729 567.416 69.5612C570.28 64.4473 574.575 60.4584 580.303 57.5946C586.031 54.6285 592.935 53.1455 601.015 53.1455ZM603.316 143.202V169.437H576.007V143.202H603.316Z" fill="#FFFDFD"/>
</svg>
