<svg width="57" height="56" viewBox="0 0 57 56" fill="none" xmlns="http://www.w3.org/2000/svg">
<g clip-path="url(#clip0_5_1141)">
<path d="M43.2426 19.1873V16.9967H38.8612V10.4246H12.573V41.0942H23.5264V49.857H30.6461H30.0985C28.9365 49.857 27.822 49.3954 27.0004 48.5737C26.1787 47.752 25.7171 46.6376 25.7171 45.4756V23.5687C25.7171 22.4067 26.1787 21.2923 27.0004 20.4706C27.822 19.649 28.9365 19.1873 30.0985 19.1873H43.2426ZM30.6461 49.857H12.573C11.411 49.857 10.2965 49.3954 9.47487 48.5737C8.6532 47.752 8.19159 46.6376 8.19159 45.4756V10.4246C8.19159 8.01483 10.1632 6.04321 12.573 6.04321H38.8612C40.0232 6.04321 41.1377 6.50482 41.9593 7.32649C42.781 8.14816 43.2426 9.26258 43.2426 10.4246V19.1873C44.4046 19.1873 45.519 19.649 46.3407 20.4706C47.1624 21.2923 47.624 22.4067 47.624 23.5687V45.4756C47.624 46.6376 47.1624 47.752 46.3407 48.5737C45.519 49.3954 44.4046 49.857 43.2426 49.857H30.6461ZM30.0985 23.5687V41.0942H43.2426V23.5687H30.0985ZM36.6705 47.6663C37.2515 47.6663 37.8088 47.4355 38.2196 47.0247C38.6304 46.6138 38.8612 46.0566 38.8612 45.4756C38.8612 44.8946 38.6304 44.3374 38.2196 43.9266C37.8088 43.5157 37.2515 43.2849 36.6705 43.2849C36.0895 43.2849 35.5323 43.5157 35.1215 43.9266C34.7107 44.3374 34.4799 44.8946 34.4799 45.4756C34.4799 46.0566 34.7107 46.6138 35.1215 47.0247C35.5323 47.4355 36.0895 47.6663 36.6705 47.6663V47.6663Z" fill="#B1C0D6"/>
</g>
<defs>
<clipPath id="clip0_5_1141">
<rect width="43.8138" height="43.8138" fill="white" transform="translate(6.00092 6.04321)"/>
</clipPath>
</defs>
</svg>
