<svg width="57" height="56" viewBox="0 0 57 56" fill="none" xmlns="http://www.w3.org/2000/svg">
<path d="M27.6746 17.4552C26.2763 17.4552 24.9352 18.0106 23.9464 18.9994C22.9577 19.9882 22.4022 21.3292 22.4022 22.7276C22.4022 24.1259 22.9577 25.467 23.9464 26.4557C24.9352 27.4445 26.2763 28 27.6746 28C29.0729 28 30.414 27.4445 31.4028 26.4557C32.3915 25.467 32.947 24.1259 32.947 22.7276C32.947 21.3292 32.3915 19.9882 31.4028 18.9994C30.414 18.0106 29.0729 17.4552 27.6746 17.4552V17.4552ZM9.78564 10.6298C9.78564 9.09422 10.3957 7.6215 11.4815 6.53565C12.5674 5.4498 14.0401 4.83978 15.5757 4.83978H42.2099C42.9703 4.83978 43.7232 4.98955 44.4257 5.28052C45.1282 5.5715 45.7665 5.99799 46.3041 6.53565C46.8418 7.07331 47.2683 7.7116 47.5593 8.41408C47.8502 9.11656 48 9.86948 48 10.6298V43.6331C48 44.0938 47.817 44.5356 47.4912 44.8614C47.1655 45.1872 46.7237 45.3702 46.263 45.3702H13.2597C13.2597 45.9844 13.5037 46.5735 13.938 47.0078C14.3724 47.4422 14.9615 47.6862 15.5757 47.6862H46.263C46.7237 47.6862 47.1655 47.8692 47.4912 48.1949C47.817 48.5207 48 48.9625 48 49.4232C48 49.8839 47.817 50.3257 47.4912 50.6515C47.1655 50.9772 46.7237 51.1602 46.263 51.1602H15.5757C14.0401 51.1602 12.5674 50.5502 11.4815 49.4643C10.3957 48.3785 9.78564 46.9058 9.78564 45.3702V10.6298ZM34.8427 27.5252C36.0337 25.7453 36.5199 23.586 36.2067 21.4675C35.8935 19.3489 34.8034 17.4226 33.1484 16.0634C31.4933 14.7043 29.3918 14.0094 27.2528 14.1142C25.1138 14.2189 23.0902 15.1157 21.5759 16.63C20.0615 18.1443 19.1648 20.1679 19.06 22.3069C18.9553 24.446 19.6501 26.5475 21.0093 28.2025C22.3685 29.8575 24.2947 30.9477 26.4133 31.2609C28.5319 31.574 30.6912 31.0878 32.4711 29.8968L38.2055 35.629L38.3607 35.7633L38.3792 35.7772C38.7196 36.024 39.1402 36.134 39.5578 36.0854C39.9754 36.0368 40.3595 35.833 40.6339 35.5145C40.9084 35.1961 41.0532 34.7861 41.0397 34.3659C41.0262 33.9457 40.8553 33.5459 40.5609 33.2458L34.8404 27.5252H34.8427Z" fill="#B1C0D6"/>
</svg>
