<svg width="57" height="56" viewBox="0 0 57 56" fill="none" xmlns="http://www.w3.org/2000/svg">
<path d="M28.1389 32.223C30.4566 32.223 32.3354 30.3442 32.3354 28.0265C32.3354 25.7088 30.4566 23.83 28.1389 23.83C25.8213 23.83 23.9424 25.7088 23.9424 28.0265C23.9424 30.3442 25.8213 32.223 28.1389 32.223Z" stroke="#B1C0D6" stroke-width="3.0501"/>
<path d="M28.1385 36.6242C40.5748 36.6242 50.6564 32.7749 50.6564 28.0265C50.6564 23.2781 40.5748 19.4287 28.1385 19.4287C15.7023 19.4287 5.62067 23.2781 5.62067 28.0265C5.62067 32.7749 15.7023 36.6242 28.1385 36.6242Z" stroke="#B1C0D6" stroke-width="3.0501"/>
<path d="M20.6924 32.3253C26.9106 43.0955 35.285 49.9017 39.3972 47.5275C43.5094 45.1533 41.8023 34.4977 35.5841 23.7276C29.366 12.9575 20.9916 6.15125 16.8793 8.52545C12.7671 10.8996 14.4743 21.5552 20.6924 32.3253Z" stroke="#B1C0D6" stroke-width="3.0501"/>
<path d="M20.6924 23.7276C14.4743 34.4978 12.7671 45.1533 16.8794 47.5275C20.9916 49.9017 29.366 43.0955 35.5841 32.3254C41.8023 21.5552 43.5094 10.8997 39.3972 8.52548C35.285 6.15128 26.9106 12.9575 20.6924 23.7276Z" stroke="#B1C0D6" stroke-width="3.0501"/>
<ellipse cx="28.055" cy="28.125" rx="3.68322" ry="3.64136" fill="#B1C0D6"/>
</svg>
