<svg width="57" height="56" viewBox="0 0 57 56" fill="none" xmlns="http://www.w3.org/2000/svg">
<g clip-path="url(#clip0_5_1025)">
<path d="M31.871 33.4812C31.8502 33.5228 31.8294 33.556 31.871 33.4812V33.4812ZM49.1285 27.4544C47.7347 27.4544 46.3603 27.773 45.1106 28.3896C44.7019 27.5652 44.2793 26.8448 44.21 26.3044C44.1269 25.674 44.0369 25.3 44.1338 24.5518C44.2308 23.8036 44.6672 22.7438 44.6603 22.6675C44.6534 22.5913 44.5633 22.2103 43.6697 22.2034C42.7761 22.1965 42.0071 22.3766 41.9171 22.6121C41.7589 23.0425 41.6361 23.485 41.5499 23.9353C41.3906 24.7458 39.764 27.6414 38.8427 29.1516C38.5379 28.5628 38.2816 28.0432 38.2262 27.6276C38.143 26.9972 38.053 26.6231 38.1499 25.8749C38.2469 25.1268 38.6834 24.0669 38.6764 23.9907C38.6695 23.9145 38.5794 23.5335 37.6872 23.5265C36.7949 23.5196 36.0246 23.6997 35.9346 23.9353C35.8445 24.1708 35.7475 24.725 35.5674 25.2584C35.3873 25.7918 33.219 30.6133 32.6524 31.8671C32.3614 32.5045 32.112 33.0171 31.9319 33.3635C31.9042 33.4189 31.8834 33.4535 31.8696 33.4812C31.8903 33.4466 31.9042 33.412 31.9042 33.4258C31.7518 33.7237 31.6617 33.8899 31.6617 33.8899V33.8969C31.544 34.1185 31.4124 34.3194 31.35 34.3194C31.3084 34.3194 31.2184 33.7375 31.3708 32.9409C31.6964 31.2645 32.4653 28.6598 32.4584 28.5697C32.4515 28.5212 32.6039 28.0709 31.9527 27.8285C31.3223 27.5999 31.0937 27.9809 31.0383 27.9809C30.9829 27.9809 30.9413 28.1194 30.9413 28.1194C30.9413 28.1194 31.641 25.1822 29.5974 25.1822C28.3227 25.1822 26.5493 26.5815 25.6779 27.8492C25.1306 28.1471 23.946 28.7914 22.6991 29.4772L21.2651 30.2669C21.2305 30.2323 21.2028 30.1976 21.1681 30.163C18.6881 27.5167 14.1105 25.6463 14.3044 22.0926C14.3737 20.7972 14.824 17.3958 23.1078 13.2671C29.8966 9.88649 35.3236 10.8148 36.2588 12.8791C37.6027 15.8233 33.3562 21.3029 26.3069 22.0926C23.619 22.3905 22.2072 21.3513 21.8539 20.9634C21.4868 20.5547 21.4314 20.5339 21.2928 20.6101C21.0642 20.7348 21.2097 21.095 21.2928 21.3098C21.5006 21.857 22.3666 22.8269 23.8421 23.3118C25.1375 23.7344 28.2881 23.9699 32.0968 22.4944C36.3765 20.8456 39.7086 16.2528 38.7305 12.4081C37.7357 8.50101 31.2572 7.21944 25.132 9.39465C21.4812 10.6901 17.534 12.7267 14.6952 15.3799C11.3215 18.5388 10.7826 21.289 11.0042 22.4389C11.794 26.5192 17.4176 29.1793 19.6676 31.1467L19.3559 31.3199C18.2267 31.881 13.9401 34.1255 12.8663 36.4946C11.654 39.1825 13.0672 41.1083 13.9941 41.3715C16.8898 42.1751 19.8533 40.7273 21.4466 38.3512C23.0399 35.9751 22.8459 32.8716 22.1116 31.4584C22.1047 31.4376 22.0908 31.4238 22.0839 31.403C22.9152 30.9106 23.7535 30.4303 24.5986 29.9621C24.3215 30.7103 24.1206 31.6108 24.0167 32.9132C23.892 34.4372 24.5224 36.4115 25.3398 37.1874C25.7 37.5268 26.1351 37.5338 26.4066 37.5338C27.3626 37.5338 27.7921 36.744 28.2701 35.8019C28.8589 34.652 29.3785 33.315 29.3785 33.315C29.3785 33.315 28.7273 36.9311 30.5076 36.9311C31.1588 36.9311 31.81 36.0929 32.1009 35.6634V35.6703C32.1009 35.6703 32.1148 35.6426 32.1494 35.5872C32.2187 35.4832 32.2533 35.4209 32.2533 35.4209V35.4001C32.5166 34.9498 33.0916 33.9177 33.9575 32.2135C35.0797 30.0106 36.1521 27.2604 36.1521 27.2604C36.256 27.8645 36.4001 28.4616 36.5816 29.0477C36.7756 29.7058 37.1843 30.4262 37.5099 31.1259C37.2466 31.4861 37.0873 31.694 37.0873 31.694C37.0873 31.6995 37.0901 31.7037 37.0942 31.7078C36.8864 31.9849 36.6509 32.2828 36.4084 32.5737C35.5231 33.6267 34.4687 34.8321 34.3302 35.1784C34.1639 35.5872 34.2055 35.892 34.5241 36.1275C34.7597 36.3076 35.1753 36.3353 35.6117 36.3007C36.4084 36.2453 36.9695 36.0513 37.2397 35.9266C37.738 35.7481 38.209 35.5009 38.639 35.1923C39.5049 34.555 40.0314 33.6406 39.9829 32.4352C39.9552 31.7702 39.7405 31.1051 39.4772 30.4817C39.5534 30.3708 39.6366 30.2531 39.7128 30.1353C40.6143 28.7902 41.4265 27.3874 42.1443 25.9359C42.2482 26.54 42.3909 27.1371 42.5738 27.7232C42.74 28.2843 43.0656 28.9008 43.3635 29.5035C42.075 30.5495 41.2784 31.7618 41.0027 32.5585C40.49 34.034 40.8918 34.6991 41.6469 34.8515C41.9863 34.9207 42.4713 34.7614 42.8315 34.609C43.3663 34.4303 43.8706 34.1712 44.3264 33.8401C45.1923 33.2027 46.0306 32.3091 45.9738 31.0968C45.953 30.5495 45.8006 30.0023 45.5997 29.4758C46.6873 29.0186 48.1005 28.7692 49.9016 28.977C53.7588 29.4273 54.5139 31.838 54.3684 32.8425C54.2229 33.847 53.4124 34.4081 53.1422 34.5744C52.8721 34.7406 52.7889 34.803 52.8097 34.9277C52.8444 35.1078 52.969 35.1009 53.1977 35.0593C53.5163 35.0039 55.2205 34.2419 55.2967 32.3784C55.4075 30.0231 53.1422 27.4322 49.1313 27.453L49.1285 27.4544ZM19.3975 37.4783C18.1228 38.8707 16.3369 39.3972 15.568 38.9539C14.7436 38.4745 15.0692 36.4254 16.6404 34.9415C17.5963 34.041 18.8294 33.2097 19.6469 32.697C19.8339 32.5862 20.1041 32.4199 20.4366 32.2191C20.4636 32.2017 20.4913 32.1856 20.5197 32.1706C20.5821 32.129 20.6513 32.0944 20.7206 32.0528C21.2942 34.1587 20.7414 36.0153 19.3975 37.477V37.4783ZM28.7051 31.1467C28.2618 32.2343 27.328 35.0053 26.7585 34.8598C26.2736 34.7351 25.9757 32.6222 26.6615 30.544C27.0079 29.498 27.7422 28.251 28.1786 27.7661C28.8783 26.9833 29.6473 26.7339 29.8274 27.0457C30.0698 27.4544 28.9822 30.4678 28.7051 31.1467ZM36.3945 34.8182C36.2075 34.9152 36.0343 34.9775 35.9512 34.9291C35.8888 34.8944 36.0274 34.7628 36.0274 34.7628C36.0274 34.7628 36.9903 33.7306 37.3713 33.2595C37.593 32.9825 37.8493 32.6569 38.1264 32.2966C38.1264 32.3313 38.1333 32.3659 38.1333 32.4075C38.125 33.6475 36.9335 34.4857 36.3932 34.8182H36.3945ZM42.3244 33.4674C42.1859 33.3704 42.2066 33.0448 42.6708 32.0334C42.8509 31.6385 43.2665 30.9735 43.987 30.3362C44.0687 30.5773 44.1131 30.8294 44.1186 31.0843C44.1117 32.643 42.9964 33.2249 42.3244 33.4674V33.4674Z" fill="#B1C0D6"/>
</g>
<defs>
<clipPath id="clip0_5_1025">
<rect width="44.3354" height="44.3354" fill="white" transform="translate(10.9615 2.79883)"/>
</clipPath>
</defs>
</svg>
