<svg width="24" height="24" viewBox="0 0 24 24" fill="none" xmlns="http://www.w3.org/2000/svg">
<path d="M21.7497 5.96017C21.0325 6.26954 20.252 6.4922 19.4481 6.57892C20.2827 6.08306 20.9078 5.2997 21.2059 4.37579C20.4227 4.8417 19.5647 5.16841 18.67 5.34142C18.296 4.94163 17.8437 4.62315 17.3413 4.40581C16.8389 4.18847 16.2971 4.07693 15.7497 4.07813C13.5348 4.07813 11.7536 5.87345 11.7536 8.07657C11.7536 8.38595 11.7911 8.69532 11.852 8.99298C8.5356 8.81954 5.57778 7.23517 3.61138 4.80938C3.25308 5.42137 3.06532 6.1182 3.06763 6.82735C3.06763 8.21485 3.7731 9.43829 4.84888 10.1578C4.2149 10.1329 3.59577 9.9586 3.04185 9.64923V9.69845C3.04185 11.6414 4.41528 13.2516 6.24575 13.6219C5.90206 13.7112 5.5485 13.7568 5.19341 13.7578C4.93325 13.7578 4.68716 13.732 4.43872 13.6969C4.94497 15.2813 6.41919 16.432 8.17466 16.4695C6.80122 17.5453 5.08091 18.1781 3.21294 18.1781C2.87778 18.1781 2.56841 18.1664 2.24731 18.1289C4.01919 19.2656 6.12153 19.9219 8.3856 19.9219C15.7356 19.9219 19.7575 13.8328 19.7575 8.54767C19.7575 8.37423 19.7575 8.20079 19.7458 8.02735C20.5239 7.45782 21.2059 6.75235 21.7497 5.96017Z" fill="white"/>
</svg>
